<svg xmlns="http://www.w3.org/2000/svg" xmlns:xlink="http://www.w3.org/1999/xlink" version="1.1" id="Layer_2" x="0px" y="0px" style="enable-background:new 0 0 154.8 49.7;" xml:space="preserve" viewBox="0.2 0 144.2 49.7">
<style type="text/css">
	.st0{fill:#007BFF;}
</style>
<g>
	<path class="st0" d="M9.4,39.8H29v8.8H0.2V2h28.5v8.8H9.4v9.9h17.6v8.6H9.4V39.8z"/>
	<path class="st0" d="M43,24.8c0,0.9,0.6,1.6,1.8,2.2c1.2,0.6,2.6,1,4.3,1.5c1.7,0.4,3.4,1,5.1,1.6c1.7,0.6,3.1,1.7,4.3,3.2   c1.2,1.5,1.8,3.4,1.8,5.7c0,3.4-1.3,6-3.8,7.9c-2.6,1.8-5.7,2.8-9.5,2.8c-6.8,0-11.5-2.6-14-7.9l7.5-4.2c1,2.9,3.1,4.3,6.5,4.3   c3.1,0,4.6-1,4.6-2.9c0-0.9-0.6-1.6-1.8-2.2c-1.2-0.6-2.6-1.1-4.3-1.5c-1.7-0.4-3.4-1-5.1-1.7c-1.7-0.7-3.1-1.7-4.3-3.2   c-1.2-1.4-1.8-3.2-1.8-5.4c0-3.3,1.2-5.9,3.6-7.8c2.4-1.9,5.4-2.8,9-2.8c2.7,0,5.2,0.6,7.4,1.8c2.2,1.2,4,3,5.3,5.2l-7.3,4   c-1.1-2.3-2.8-3.4-5.3-3.4c-1.1,0-2,0.2-2.8,0.7C43.4,23.2,43,23.9,43,24.8z"/>
	<path class="st0" d="M71.9,24.8c0,0.9,0.6,1.6,1.8,2.2c1.2,0.6,2.6,1,4.3,1.5c1.7,0.4,3.4,1,5.1,1.6c1.7,0.6,3.1,1.7,4.3,3.2   c1.2,1.5,1.8,3.4,1.8,5.7c0,3.4-1.3,6-3.8,7.9c-2.6,1.8-5.7,2.8-9.5,2.8c-6.8,0-11.5-2.6-14-7.9l7.5-4.2c1,2.9,3.1,4.3,6.5,4.3   c3.1,0,4.6-1,4.6-2.9c0-0.9-0.6-1.6-1.8-2.2c-1.2-0.6-2.6-1.1-4.3-1.5c-1.7-0.4-3.4-1-5.1-1.7c-1.7-0.7-3.1-1.7-4.3-3.2   c-1.2-1.4-1.8-3.2-1.8-5.4c0-3.3,1.2-5.9,3.6-7.8c2.4-1.9,5.4-2.8,9-2.8c2.7,0,5.2,0.6,7.4,1.8c2.2,1.2,4,3,5.3,5.2l-7.3,4   C80,23.2,78.2,22,75.8,22c-1.1,0-2,0.2-2.8,0.7C72.3,23.2,71.9,23.9,71.9,24.8z"/>
	<path class="st0" d="M119.4,15.3h8.6v33.3h-8.6v-3.9c-2.6,3.2-6.2,4.9-10.8,4.9c-4.4,0-8.2-1.7-11.4-5.1c-3.2-3.4-4.8-7.6-4.8-12.5   c0-4.9,1.6-9.1,4.8-12.5c3.2-3.4,7-5.1,11.4-5.1c4.7,0,8.3,1.6,10.8,4.9V15.3z M103.6,38.7c1.7,1.8,3.9,2.6,6.6,2.6   s4.9-0.9,6.6-2.6c1.8-1.8,2.6-4,2.6-6.8s-0.9-5-2.6-6.8c-1.8-1.8-4-2.6-6.6-2.6s-4.9,0.9-6.6,2.6c-1.7,1.8-2.6,4-2.6,6.8   S101.8,36.9,103.6,38.7z"/>
	<path class="st0" d="M135.8,48.6V0h8.6v48.6H135.8z"/>
</g>
</svg>